# xmcd
#
# Track frame offsets: 
#        150
#        25998
#        48747
#        74247
#        100974
#        127326
#        157018
#        183340
#        209093
#        233861
#
# Disc length: 3490 seconds
#
# Revision: 0
# Processed by: cddbd v1.5.2PL0 Copyright (c) Steve Scherf et al.
# Submitted via: ExactAudioCopy v1.0b3
#
DISCID=a20da00a
DTITLE=Manh Quynh, Ha Vy - Huong Ngoc Lan
DYEAR=1997
DGENRE=
TTITLE0=Manh Quynh - Co the thoi
TTITLE1=Ha Vy - Huong ngoc lan
TTITLE2=Manh Quynh - Mot thuo yeu em
TTITLE3=Ha Vy - Ha buon
TTITLE4=Manh Quynh - Thuong tinh nhan
TTITLE5=Manh Quynh - Tinh khuc doan truong 2
TTITLE6=Manh Quynh - Tinh ky nu
TTITLE7=Ha Vy - De nho
TTITLE8=Manh Quynh - Bao dem khong ngu
TTITLE9=Manh Quynh - Dem lang thang
EXTD=
EXTT0=
EXTT1=
EXTT2=
EXTT3=
EXTT4=
EXTT5=
EXTT6=
EXTT7=
EXTT8=
EXTT9=
PLAYORDER=
